<?xml version="1.0" encoding="UTF-8"?>
<!DOCTYPE svg PUBLIC "-//W3C//DTD SVG 1.1//EN" "http://www.w3.org/Graphics/SVG/1.1/DTD/svg11.dtd">
<!-- Creator: CorelDRAW -->
<svg xmlns="http://www.w3.org/2000/svg" xml:space="preserve" width="2048px" height="2048px" style="shape-rendering:geometricPrecision; text-rendering:geometricPrecision; image-rendering:optimizeQuality; fill-rule:evenodd; clip-rule:evenodd"
viewBox="0 0 2048 2048"
 xmlns:xlink="http://www.w3.org/1999/xlink">
 <defs>
  <style type="text/css">
   <![CDATA[
    .fil0 {fill:none}
    .fil1 {fill:#424242}
   ]]>
  </style>
 </defs>
 <g id="Layer_x0020_1">
  <metadata id="CorelCorpID_0Corel-Layer"/>
  <g id="_388201128">
   <rect id="_388203720" class="fil0" width="2048" height="2048"/>
   <rect id="_388201104" class="fil0" x="255.999" y="255.999" width="1536" height="1536"/>
  </g>
  <g id="_388361760">
   <path id="_388201056" class="fil1" d="M1773.67 1191.5c-32.217,144.842 -105.332,274.281 -206.613,375.559 -138.979,138.983 -330.981,224.946 -543.055,224.946 -212.074,0 -404.076,-85.9631 -543.055,-224.946 -119.668,-119.665 -200.023,-278.642 -220.048,-455.892 421.676,-441.039 586.927,-265.407 764.923,-76.1835 174.474,185.477 359.735,382.377 747.847,156.516zm-1093.98 -279.496c30.9236,0 58.9241,12.5374 79.193,32.8063 20.2701,20.2701 32.8075,48.2705 32.8075,79.1942 0,30.9236 -12.5374,58.9241 -32.8075,79.1942 -20.2689,20.2689 -48.2693,32.8063 -79.193,32.8063 -30.9236,0 -58.9241,-12.5374 -79.1942,-32.8063 -20.2689,-20.2701 -32.8063,-48.2705 -32.8063,-79.1942 0,-30.9236 12.5374,-58.9241 32.8063,-79.1942 20.2701,-20.2689 48.2705,-32.8063 79.1942,-32.8063zm46.8508 65.1497c-11.9847,-11.9847 -28.5508,-19.4008 -46.8508,-19.4008 -18.3,0 -34.8662,7.41497 -46.8508,19.4008 -11.9858,11.9847 -19.4008,28.5508 -19.4008,46.8508 0,18.3 7.41497,34.8662 19.4008,46.8508 11.9847,11.9858 28.5508,19.4008 46.8508,19.4008 18.3,0 34.8662,-7.41615 46.8508,-19.4008 11.9858,-11.9858 19.4008,-28.5508 19.4008,-46.8508 0,-18.3 -7.41497,-34.865 -19.4008,-46.8508z"/>
   <g>
    <path id="_388360872" class="fil1" d="M1024 255.999c212.074,0 404.076,85.9631 543.055,224.946 138.983,138.979 224.946,330.981 224.946,543.055 0,24.7937 -1.19055,49.3087 -3.4878,73.5024 -375.55,243.66 -548.102,60.3497 -710.168,-111.941 -198.24,-210.744 -382.76,-406.823 -822.265,27.5658 2.88307,-207.758 88.2627,-395.581 224.866,-532.182 138.979,-138.983 330.981,-224.946 543.055,-224.946zm341.181 661.616c58.9949,0 106.82,47.8252 106.82,106.82 0,58.9949 -47.8252,106.82 -106.82,106.82 -58.9949,0 -106.82,-47.8252 -106.82,-106.82 0,-58.9949 47.8252,-106.82 106.82,-106.82z"/>
    <circle id="_388362888" class="fil1" cx="1365.18" cy="1024.44" r="58.4138"/>
   </g>
  </g>
 </g>
</svg>
